<svg width="20" height="20" viewBox="0 0 20 20" fill="none" xmlns="http://www.w3.org/2000/svg">
<path fill-rule="evenodd" clip-rule="evenodd" d="M16.0343 10.6277C16.0062 8.09416 18.3176 6.87897 18.4207 6.81785C17.1221 5.0993 15.0984 4.86348 14.3779 4.83692C12.6575 4.67848 11.0188 5.75393 10.1456 5.75393C9.27463 5.75393 7.92588 4.85996 6.49905 4.88256C4.62154 4.90799 2.89152 5.87064 1.92533 7.39115C-0.02411 10.4507 1.42688 14.9855 3.32635 17.469C4.25521 18.6827 5.36265 20.0487 6.81542 19.9987C8.21596 19.9486 8.74472 19.1789 10.4374 19.1789C12.1302 19.1789 12.6058 19.9987 14.0871 19.9729C15.5929 19.9482 16.5477 18.7358 17.4691 17.5171C18.5349 16.107 18.9741 14.7418 19 14.6723C18.9674 14.6587 16.0645 13.6524 16.0343 10.6277ZM13.2508 3.19335C14.0212 2.34698 14.5433 1.17073 14.4016 0C13.2894 0.0408601 11.9432 0.668932 11.1451 1.51452C10.4299 2.26482 9.80426 3.45933 9.97183 4.60897C11.2122 4.69595 12.4776 4.03815 13.2508 3.19335Z" fill="#0D5229"/>
</svg>
