<svg width="20" height="20" viewBox="0 0 20 20" fill="none" xmlns="http://www.w3.org/2000/svg">
<path d="M19.7794 7.91667H10V12.0833H15.4052C14.5646 14.268 12.481 15.8333 10 15.8333C6.77836 15.8333 4.16667 13.2216 4.16667 10C4.16667 6.77831 6.77836 4.16667 10 4.16667C11.1682 4.16667 12.2449 4.52555 13.1571 5.11724C13.2967 5.20798 13.4408 5.29317 13.5719 5.39505L16.6029 2.50341L16.5345 2.45082C14.7808 0.930888 12.5029 0 10 0C4.47713 0 0 4.47713 0 10C0 15.5228 4.47713 20 10 20C15.0981 20 19.2962 16.1823 19.9134 11.2515C19.9655 10.8418 20 10.4239 20 10C20 9.28513 19.9219 8.58902 19.7794 7.91667Z" fill="#0D5229"/>
</svg>
